<svg aria-hidden="true" style="position:absolute;width:0;height:0;overflow:hidden" xmlns="http://www.w3.org/2000/svg"><defs>
<symbol id="icon-book" viewBox="0 0 32 32"><path stroke-linejoin="round" stroke-linecap="round" stroke-width="3" d="M29.333 8.267c0-1.493 0-2.24-.291-2.811a2.666 2.666 0 0 0-1.165-1.165C27.306 4 26.56 4 25.066 4h-.533c-2.987 0-4.48 0-5.621.581a5.331 5.331 0 0 0-2.331 2.331C16 8.053 16 9.546 16 12.533V28l.133-.2c.926-1.389 1.389-2.084 2.001-2.587a5.345 5.345 0 0 1 1.837-.983c.758-.23 1.593-.23 3.262-.23h1.833c1.494 0 2.24 0 2.811-.291.502-.256.91-.664 1.165-1.165.291-.57.291-1.317.291-2.811V8.266zM2.667 8.267c0-1.493 0-2.24.291-2.811.256-.502.664-.91 1.165-1.165C4.693 4 5.44 4 6.934 4h.533c2.987 0 4.48 0 5.621.581a5.331 5.331 0 0 1 2.331 2.331C16 8.053 16 9.546 16 12.533V28l-.133-.2c-.926-1.389-1.389-2.084-2.001-2.587a5.345 5.345 0 0 0-1.837-.983C11.271 24 10.436 24 8.767 24H6.934c-1.493 0-2.24 0-2.811-.291a2.666 2.666 0 0 1-1.165-1.165c-.291-.57-.291-1.317-.291-2.811V8.266z"/></symbol><symbol id="icon-chevron-down" viewBox="0 0 32 32"><path stroke-linejoin="round" stroke-linecap="round" stroke-width="3.2" d="m8 12 8 8 8-8"/></symbol>
<symbol id="icon-eye-off" viewBox="0 0 32 32"><path stroke-linejoin="round" stroke-linecap="round" stroke-miterlimit="4" stroke-width="3.2" d="M23.92 23.92c-2.279 1.737-5.055 2.7-7.92 2.747-9.333 0-14.667-10.667-14.667-10.667 1.659-3.091 3.959-5.791 6.747-7.92M13.2 5.653c0.918-0.215 1.857-0.322 2.8-0.32 9.333 0 14.667 10.667 14.667 10.667-0.809 1.514-1.775 2.94-2.88 4.253M18.827 18.827c-0.366 0.393-0.808 0.708-1.299 0.927s-1.020 0.336-1.557 0.346c-0.537 0.009-1.071-0.089-1.569-0.291s-0.95-0.5-1.33-0.88-0.679-0.832-0.88-1.33c-0.201-0.498-0.3-1.032-0.29-1.569s0.127-1.067 0.346-1.557 0.534-0.932 0.927-1.298"></path><path stroke-linejoin="round" stroke-linecap="round" stroke-miterlimit="4" stroke-width="3.2" d="M1.333 1.333l29.333 29.333"></path></symbol>
<symbol id="icon-heart" viewBox="0 0 32 32"><path stroke-linejoin="round" stroke-linecap="round" stroke-width="2.462" d="M27.787 6.147a7.326 7.326 0 0 0-10.373 0L16.001 7.56l-1.413-1.413a7.333 7.333 0 0 0-10.374 0 7.333 7.333 0 0 0 0 10.374l11.787 11.787 11.787-11.787a7.326 7.326 0 0 0 0-10.373z"/></symbol>
<symbol id="icon-log-in" viewBox="0 0 32 32"><path fill="none" stroke="#f4c550"  stroke-linejoin="round" stroke-linecap="round" stroke-width="3.2" d="M20 4h1.6c2.24 0 3.36 0 4.216.436a3.996 3.996 0 0 1 1.748 1.748C28 7.04 28 8.16 28 10.4v11.2c0 2.24 0 3.36-.436 4.216a4.001 4.001 0 0 1-1.748 1.748C24.96 28 23.84 28 21.6 28H20M13.333 9.333 20 16m0 0-6.667 6.667M20 16H4"/></symbol>
<symbol id="icon-log-out" viewBox="0 0 32 32"><path fill="#f4c550" stroke="#f4c550" d="M17.333 28c0 .736-.597 1.333-1.333 1.333h-5.333A6.676 6.676 0 0 1 4 22.667V9.333a6.676 6.676 0 0 1 6.666-6.667H16a1.333 1.333 0 0 1 0 2.666h-5.333a4 4 0 0 0-4 4v13.333a4 4 0 0 0 4 4H16c.736 0 1.333.597 1.333 1.333zm10.276-12.943-5.333-5.333a1.333 1.333 0 1 0-1.885 1.885l3.058 3.058H13.334a1.333 1.333 0 0 0 0 2.666h10.115l-3.057 3.057a1.333 1.333 0 1 0 1.885 1.885l5.334-5.334a1.332 1.332 0 0 0 0-1.886z"/></symbol>
<symbol id="icon-ukraine" viewBox="0 0 32 32"><path fill="#ffda44" style="fill:var(--color3, #ffda44)" d="M16 32c8.837 0 16-7.163 16-16S24.837 0 16 0 0 7.163 0 16s7.163 16 16 16z"/><path fill="#338af3" style="fill:var(--color4, #338af3)" d="M0 16C0 7.164 7.163 0 16 0s16 7.163 16 16z"/></symbol>
<symbol id="icon-cross" viewBox="0 0 32 32"><path stroke-linejoin="round" stroke-linecap="round" stroke-width="2.5" d="M24 8 8 24M8 8l16 16"/></symbol>
<symbol id="icon-star" viewBox="0 0 32 32"><path fill="#ffc531" style="fill: var(--color1, #ffc531); stroke: var(--color1, #ffc531)" stroke="#ffc531" stroke-linejoin="miter" stroke-linecap="butt" stroke-miterlimit="4" stroke-width="2.4" d="M12.4 9.394l3.6-6.822 3.6 6.822c0.318 0.603 0.899 1.025 1.571 1.141l7.601 1.315-5.376 5.532c-0.475 0.489-0.697 1.171-0.6 1.846l1.098 7.635-6.922-3.404c-0.612-0.301-1.329-0.301-1.941 0l-6.922 3.404 1.098-7.635c0.097-0.675-0.125-1.357-0.6-1.846l-5.376-5.532 7.601-1.315c0.672-0.116 1.252-0.538 1.571-1.141z"></path></symbol>
<symbol id="icon-online" viewBox="0 0 32 32"><path fill="#fff" style="fill: var(--color1, #fff)" d="M32 16c0 8.837-7.163 16-16 16s-16-7.163-16-16c0-8.837 7.163-16 16-16s16 7.163 16 16z"></path><path fill="#38cd3e" style="fill: var(--color2, #38cd3e)" d="M26.667 16c0 5.891-4.776 10.667-10.667 10.667s-10.667-4.776-10.667-10.667c0-5.891 4.776-10.667 10.667-10.667s10.667 4.776 10.667 10.667z"></path></symbol>
</defs>
</svg>